<svg xmlns="http://www.w3.org/2000/svg" width="162" height="127" viewBox="0 0 162 127">
  <g fill="none" fill-rule="evenodd">
    <g transform="translate(0 103)">
      <g transform="translate(114.34 .41)">
        <polygon fill="#9D8B73" points="21.319 0 12.542 16.11 8.777 16.11 0 0 3.543 0 10.66 13.014 17.776 0" transform="matrix(1 0 0 -1 0 16.11)"/>
        <path fill="#594C3B" d="M10.6574026,9.59 L14.2222056,16.109 L7.09320562,16.111 L10.6574026,9.59 Z"/>
        <path fill="#594C3B" d="M10.6639856,8.08 L15.0587369,16.114 L6.26973687,16.114 L10.6639856,8.08 Z"/>
      </g>
      <path fill="#9D8B73" d="M8.296 16.932C11.356 16.932 13.736 15.8326667 15.436 13.634L15.436 13.634 13.124 11.866C12.5346667 12.5913333 11.8886667 13.175 11.186 13.617 10.4833333 14.059 9.656 14.28 8.704 14.28 8.00133333 14.28 7.32133333 14.1666667 6.664 13.94 6.00666667 13.7133333 5.42866667 13.396 4.93 12.988 4.43133333 12.58 4.029 12.087 3.723 11.509 3.417 10.931 3.264 10.2906667 3.264 9.588L3.264 9.588 16.184 9.588 16.184 8.5C16.184 7.45733333 16.0423333 6.43166667 15.759 5.423 15.4756667 4.41433333 15.0166667 3.50766667 14.382 2.703 13.7473333 1.89833333 12.937 1.24666667 11.951.748 10.965.249333333 9.758 1.91846539e-13 8.33 1.91846539e-13 7.12866667 1.91846539e-13 6.018.215333333 4.998.646 3.978 1.07666667 3.09966667 1.67166667 2.363 2.431 1.62633333 3.19033333 1.04833333 4.08566667.629 5.117.209666667 6.14833333 7.10542736e-15 7.26466667 7.10542736e-15 8.466 7.10542736e-15 9.66733333.192666667 10.7836667.578 11.815.963333333 12.8463333 1.513 13.7416667 2.227 14.501 2.941 15.2603333 3.81366667 15.8553333 4.845 16.286 5.87633333 16.7166667 7.02666667 16.932 8.296 16.932zM12.92 7.14L3.264 7.14C3.264 6.596 3.383 6.04633333 3.621 5.491 3.859 4.93566667 4.19333333 4.43133333 4.624 3.978 5.05466667 3.52466667 5.58166667 3.15633333 6.205 2.873 6.82833333 2.58966667 7.514 2.448 8.262 2.448 9.03266667 2.448 9.707 2.567 10.285 2.805 10.863 3.043 11.3446667 3.37166667 11.73 3.791 12.1153333 4.21033333 12.4043333 4.70333333 12.597 5.27 12.7896667 5.83666667 12.8973333 6.46 12.92 7.14L12.92 7.14zM28.101 16.524L34.425.408 31.161.408 26.537 12.75 21.709.408 18.173.408 24.735 16.524 28.101 16.524zM44.71 16.932C47.77 16.932 50.15 15.8326667 51.85 13.634L51.85 13.634 49.538 11.866C48.9486667 12.5913333 48.3026667 13.175 47.6 13.617 46.8973334 14.059 46.07 14.28 45.118 14.28 44.4153334 14.28 43.7353334 14.1666667 43.078 13.94 42.4206667 13.7133333 41.8426667 13.396 41.344 12.988 40.8453334 12.58 40.443 12.087 40.137 11.509 39.831 10.931 39.678 10.2906667 39.678 9.588L39.678 9.588 52.598 9.588 52.598 8.5C52.598 7.45733333 52.4563334 6.43166667 52.173 5.423 51.8896667 4.41433333 51.4306667 3.50766667 50.796 2.703 50.1613334 1.89833333 49.351 1.24666667 48.365.748 47.379.249333333 46.172 1.91846539e-13 44.744 1.91846539e-13 43.5426667 1.91846539e-13 42.432.215333333 41.412.646 40.392 1.07666667 39.5136667 1.67166667 38.777 2.431 38.0403334 3.19033333 37.4623334 4.08566667 37.043 5.117 36.6236667 6.14833333 36.414 7.26466667 36.414 8.466 36.414 9.66733333 36.6066667 10.7836667 36.992 11.815 37.3773334 12.8463333 37.927 13.7416667 38.641 14.501 39.355 15.2603333 40.2276667 15.8553333 41.259 16.286 42.2903334 16.7166667 43.4406667 16.932 44.71 16.932zM49.334 7.14L39.678 7.14C39.678 6.596 39.797 6.04633333 40.035 5.491 40.273 4.93566667 40.6073334 4.43133333 41.038 3.978 41.4686667 3.52466667 41.9956667 3.15633333 42.619 2.873 43.2423334 2.58966667 43.928 2.448 44.676 2.448 45.4466667 2.448 46.121 2.567 46.699 2.805 47.277 3.043 47.7586667 3.37166667 48.144 3.791 48.5293334 4.21033333 48.8183334 4.70333333 49.011 5.27 49.2036667 5.83666667 49.3113334 6.46 49.334 7.14L49.334 7.14zM59.585 16.524L59.585 8.432C59.585 6.664 59.9816667 5.36066667 60.775 4.522 61.5683334 3.68333333 62.713 3.264 64.209 3.264 64.4583334 3.264 64.7076667 3.28666667 64.957 3.332 65.2063334 3.37733333 65.4556667 3.434 65.705 3.502L65.705 3.502 65.841.204C65.433.068 64.9796667 1.91846539e-13 64.481 1.91846539e-13 63.9823334 1.91846539e-13 63.4836667.0736666667 62.985.221 62.4863334.368333333 62.0273334.566666667 61.608.816 61.1886667 1.06533333 60.809 1.36566667 60.469 1.717 60.129 2.06833333 59.857 2.45933333 59.653 2.89L59.653 2.89 59.585 2.89 59.585.408 56.525.408 56.525 16.524 59.585 16.524zM82.892.409765625L76.024 17.992C75.752 18.6946667 75.4686667 19.335 75.174 19.913 74.8793334 20.491 74.528 20.984 74.12 21.392 73.712 21.8 73.219 22.1173333 72.641 22.344 72.063 22.5706667 71.3546667 22.684 70.516 22.684 70.0626667 22.684 69.6036667 22.6556667 69.139 22.599 68.6743334 22.5423333 68.2266667 22.4233333 67.796 22.242L67.796 22.242 68.17 19.454C68.782 19.7033333 69.394 19.828 70.006 19.828 70.482 19.828 70.8843334 19.7656667 71.213 19.641 71.5416667 19.5163333 71.825 19.335 72.063 19.097 72.301 18.859 72.4993334 18.5813333 72.658 18.264 72.8166667 17.9466667 72.9753334 17.584 73.134 17.176L73.134 17.176 74.12 14.626 73.28275 12.59875 72.4455 10.5715 68.248.409765625 71.72.409765625 75.752 10.988 75.82 10.988 79.651.409765625 82.892.409765625zM92.9590001 22.684C94.2736667 22.684 95.4750001 22.48 96.5630001 22.072 97.6510001 21.664 98.5803334 21.0916667 99.3510001 20.355 100.121667 19.6183333 100.716667 18.7456667 101.136 17.737 101.555333 16.7283333 101.765 15.612 101.765 14.388L101.765.408 98.7050001.408 98.7050001 2.72 98.6370001 2.72C98.0476667 1.85866667 97.2373334 1.19 96.2060001.714 95.1746667.238 94.1150001 5.73763259e-13 93.0270001 5.73763259e-13 91.7803334 5.73763259e-13 90.6526667.215333333 89.6440001.646 88.6353334 1.07666667 87.7740001 1.67733333 87.0600001 2.448 86.3460001 3.21866667 85.7963334 4.11966667 85.4110001 5.151 85.0256667 6.18233333 84.8330001 7.28733333 84.8330001 8.466 84.8330001 9.64466667 85.0370001 10.7383333 85.4450001 11.747 85.8530001 12.7556667 86.4196667 13.6283333 87.1450001 14.365 87.8703334 15.1016667 88.7373334 15.6796667 89.7460001 16.099 90.7546667 16.5183333 91.8483334 16.728 93.0270001 16.728 94.1376667 16.728 95.1973334 16.4956667 96.2060001 16.031 97.2146667 15.5663333 98.0136667 14.8466667 98.6030001 13.872L98.7050001 13.872 98.7050001 14.252C98.7050001 14.932 98.6143334 15.6063333 98.4330001 16.275 98.2516667 16.9436667 97.9400001 17.5386667 97.4980001 18.06 97.0560001 18.5813333 96.4610001 19.0063333 95.7130001 19.335 94.9650001 19.6636667 94.0243334 19.828 92.8910001 19.828 91.7123334 19.828 90.6583334 19.607 89.7290001 19.165 88.7996667 18.723 87.9383334 18.0713333 87.1450001 17.21L85.0710001 19.794C86.2270001 20.8593333 87.4453334 21.6073333 88.7260001 22.038 90.0066667 22.4686667 91.4176667 22.684 92.9590001 22.684zM93.4010001 13.872C91.7690001 13.872 90.4770001 13.379 89.5250001 12.393 88.5730001 11.407 88.0970001 10.098 88.0970001 8.466 88.0970001 7.65 88.2216667 6.89633333 88.4710001 6.205 88.7203334 5.51366667 89.0716667 4.92433333 89.5250001 4.437 89.9783334 3.94966667 90.5336667 3.56433333 91.1910001 3.281 91.8483334 2.99766667 92.5850001 2.856 93.4010001 2.856 94.2170001 2.856 94.9536667 2.99766667 95.6110001 3.281 96.2683334 3.56433333 96.8236667 3.94966667 97.2770001 4.437 97.7303334 4.92433333 98.0816667 5.51366667 98.3310001 6.205 98.5803334 6.89633333 98.7050001 7.65 98.7050001 8.466 98.7050001 10.098 98.2290001 11.407 97.2770001 12.393 96.3250001 13.379 95.0330001 13.872 93.4010001 13.872zM140.44 16.524L140.44 8.16C140.44 7.25333333 140.553333 6.46566667 140.78 5.797 141.006667 5.12833333 141.312667 4.57866667 141.698 4.148 142.083333 3.71733333 142.531 3.39433333 143.041 3.179 143.551 2.96366667 144.078 2.856 144.622 2.856 145.37 2.856 145.965 2.98633333 146.407 3.247 146.849 3.50766667 147.189 3.87033333 147.427 4.335 147.665 4.79966667 147.823667 5.34933333 147.903 5.984 147.982333 6.61866667 148.022 7.32133333 148.022 8.092L148.022 16.524 151.082 16.524 151.082 7.718C151.082 6.29 151.399333 5.12266667 152.034 4.216 152.668667 3.30933333 153.722667 2.856 155.196 2.856 155.944 2.856 156.544667 2.98633333 156.998 3.247 157.451333 3.50766667 157.802667 3.85333333 158.052 4.284 158.301333 4.71466667 158.465667 5.21333333 158.545 5.78 158.624333 6.34666667 158.664 6.936 158.664 7.548L158.664 16.524 161.724 16.524 161.724 7.14C161.724 6.23333333 161.639 5.355 161.469 4.505 161.299 3.655 160.987333 2.89566667 160.534 2.227 160.080667 1.55833333 159.457333 1.02 158.664.612 157.870667.204 156.850667-4.52970994e-13 155.604-4.52970994e-13 154.629333-4.52970994e-13 153.666.249333333 152.714.748 151.762 1.24666667 151.025333 1.99466667 150.504 2.992 149.982667 1.99466667 149.314 1.24666667 148.498.748 147.682.249333333 146.673333-4.52970994e-13 145.472-4.52970994e-13 144.746667-4.52970994e-13 144.083667.107666667 143.483.323 142.882333.538333333 142.361.799 141.919 1.105 141.477 1.411 141.114333 1.734 140.831 2.074 140.547667 2.414 140.372 2.69733333 140.304 2.924L140.236 2.924 140.236.408 137.38.408 137.38 16.524 140.44 16.524zM109.704 16.524L109.704 8.432C109.704 6.664 110.100667 5.36066667 110.894 4.522 111.687333 3.68333333 112.832 3.264 114.328 3.264 114.577333 3.264 114.826667 3.28666667 115.076 3.332 115.325333 3.37733333 115.574667 3.434 115.824 3.502L115.824 3.502 115.96.204C115.552.068 115.098667-4.52970994e-13 114.6-4.52970994e-13 114.101333-4.52970994e-13 113.602667.0736666667 113.104.221 112.605333.368333333 112.146333.566666667 111.727.816 111.307667 1.06533333 110.928 1.36566667 110.588 1.717 110.248 2.06833333 109.976 2.45933333 109.772 2.89L109.772 2.89 109.704 2.89 109.704.408 106.644.408 106.644 16.524 109.704 16.524z"/>
    </g>
    <g transform="translate(40)">
      <polygon fill="#9D8B73" points="49 0 52 1 45 14 85 88 71 88 43 36 14 88 0 88 41 14 34 1 37 0 43 11"/>
      <polygon fill="#594C3B" points="43 56 60 88 26 88"/>
    </g>
  </g>
</svg>
